<?xml version="1.0" encoding="utf-8"?>
<!-- Generator: Adobe Illustrator 19.2.1, SVG Export Plug-In . SVG Version: 6.00 Build 0)  -->
<svg version="1.1" id="Layer_1" xmlns="http://www.w3.org/2000/svg" xmlns:xlink="http://www.w3.org/1999/xlink" x="0px" y="0px"
	 viewBox="0 0 96.4 96.4" style="enable-background:new 0 0 96.4 96.4;" xml:space="preserve">
<style type="text/css">
	.st0{fill:#FFFFFF;}
</style>
<path class="st0" d="M63.7,12.5c-5.9,0-11.3,2.1-15.5,5.6c-4.2-3.5-9.6-5.6-15.5-5.6c-13.4,0-24.3,10.9-24.3,24.3
	s8.8,19.7,18.9,28.5c5.8,5,20.9,18.7,20.9,18.7S65,69.4,70.5,65.2C81.1,57,88,50.1,88,36.7S77.1,12.5,63.7,12.5z M55.9,40l-0.7,3H43
	c0,0,0,1.8,0,2.3c0,0.5,0-0.3,0,2.7h11.5l-0.7,2H43.5c0.4,1,1,2.9,1.7,3.9c1.5,1.8,3.5,2.7,5.9,2.7c2.9,0,3.9-0.9,6.9-2.6v6.9
	c-4,1-4.2,1.5-6.8,1.5c-4.4,0-8-1.6-10.8-4.6c-1.9-2-3.2-5.7-3.8-7.7h-3.3l0.7-2h2.2c0-3,0-1.8,0-2.2c0-0.7,0-0.8,0-2.8h-3l0.7-3
	h2.7c0.6-2,1.9-5.4,3.8-7.5c2.8-3,6.6-4.5,11.2-4.5c2.5,0,4.7,0.5,6.6,1.4l-1.3,6.3c-1.3-1.3-3.1-1.9-5.6-1.9c-2.5,0-4.4,0.8-6,2.6
	c-0.9,1-1.5,2.7-1.8,3.7H55.9z"/>
</svg>
