<?xml version="1.0" encoding="utf-8"?>
<!-- Generator: Adobe Illustrator 19.2.1, SVG Export Plug-In . SVG Version: 6.00 Build 0)  -->
<svg version="1.1" id="Layer_1" xmlns="http://www.w3.org/2000/svg" xmlns:xlink="http://www.w3.org/1999/xlink" x="0px" y="0px"
	 viewBox="0 0 96.4 96.4" style="enable-background:new 0 0 96.4 96.4;" xml:space="preserve">
<style type="text/css">
	.st0{fill:#FFFFFF;}
</style>
<g>
	<path class="st0" d="M85.5,78.2l3.4,0.3c-1.2,2.1-3,3.6-5.3,4.7c-2.6,1.2-5.8,1.7-9.4,1.4c-3.5-0.3-6.5-1.1-9-2.5
		c-2.5-1.4-4.2-3.3-5.3-5.7s-1.5-5-1.3-7.7c0.2-3,1.2-5.7,2.8-8.2c1.6-2.5,3.7-4.3,6.3-5.4s5.4-1.5,8.6-1.3c2.7,0.2,5,0.9,7,2.2
		c2,1.2,3.5,2.8,4.4,4.9c0.9,2,1.3,4.2,1.1,6.5c-0.2,2.7-1.3,5.1-3.1,7.2c-2.3,2.6-5.1,3.8-8.4,3.5c-0.9-0.1-1.5-0.3-2-0.6
		c-0.4-0.3-0.7-0.8-0.8-1.4c-1.4,1.1-2.9,1.6-4.5,1.5c-1.8-0.1-3.2-0.9-4.3-2.2s-1.5-3-1.4-5c0.2-2.5,1.1-4.7,2.7-6.7
		c1.9-2.4,4.2-3.5,6.9-3.2c1.9,0.2,3.2,1,4,2.5l0.5-1.7l4.2,0.3l-3.4,11.3c-0.2,0.7-0.3,1.2-0.3,1.4c0,0.3,0,0.5,0.1,0.6
		c0.1,0.1,0.3,0.2,0.4,0.2c0.5,0,1.2-0.2,2.1-0.8c1.2-0.7,2.1-1.7,2.9-3.1c0.8-1.3,1.2-2.7,1.4-4.2c0.2-2.6-0.6-4.9-2.3-6.8
		c-1.8-1.9-4.3-3-7.7-3.3c-2.9-0.2-5.4,0.2-7.5,1.2c-2.1,1-3.8,2.6-5,4.6s-1.9,4.2-2.1,6.6c-0.2,2.3,0.2,4.3,1.2,6.3
		c1,1.9,2.5,3.4,4.5,4.4c2,1,4.3,1.6,7,1.8c2.6,0.2,4.8,0,6.7-0.5C82.7,80.4,84.3,79.5,85.5,78.2z M68.7,70.2
		c-0.1,1.4,0.1,2.4,0.6,3.1c0.5,0.7,1.2,1.1,2,1.1c0.6,0,1.2-0.1,1.8-0.3c0.4-0.2,0.9-0.5,1.3-0.9c0.6-0.6,1.2-1.5,1.7-2.7
		c0.5-1.2,0.8-2.4,0.9-3.4c0.1-1.2-0.1-2.2-0.6-2.8c-0.5-0.7-1.2-1.1-2-1.1c-0.9-0.1-1.8,0.2-2.6,0.9s-1.5,1.6-2,2.9
		C69.1,68,68.8,69.1,68.7,70.2z"/>
</g>
<g>
	<path class="st0" d="M62,51.1l-6-5.5L54.7,47c-2.3,2.5-5.4,3.9-8.7,3.9s-6.4-1.4-8.7-3.9l-1.3-1.4L16,64c-0.3,0.3-0.7,0.4-1.1,0.4
		c-0.4,0-0.9-0.2-1.2-0.5c-0.6-0.7-0.6-1.7,0.1-2.3l20.1-18.4L13.6,21.4c-0.6-0.7-0.6-1.7,0.1-2.3c0.7-0.6,1.7-0.6,2.3,0.1
		l23.7,25.6c3.4,3.6,9.2,3.6,12.6,0l23.4-25.5c0.6-0.7,1.6-0.7,2.3-0.1c0.7,0.6,0.7,1.6,0.1,2.3L58.2,43.2l6.8,6.2
		c2.7-1.2,5.6-1.9,8.8-1.9c4.2,0,8,1.2,11.3,3.3V18c0-4.5-1.8-6.2-6.3-6.2H13.5C9,11.8,7,13.8,7,18.3v45.5c0,4.5,2,6.5,6.5,6.5h39.2
		c0-0.5-0.1-1.1-0.1-1.6C52.6,61.4,56.3,54.9,62,51.1L62,51.1z"/>
</g>
</svg>
