<?xml version="1.0" encoding="utf-8"?>
<!-- Generator: Adobe Illustrator 19.2.1, SVG Export Plug-In . SVG Version: 6.00 Build 0)  -->
<svg version="1.1" id="Layer_1" xmlns="http://www.w3.org/2000/svg" xmlns:xlink="http://www.w3.org/1999/xlink" x="0px" y="0px"
	 viewBox="0 0 96.4 62.1" style="enable-background:new 0 0 96.4 62.1;" xml:space="preserve">
<style type="text/css">
	.st0{clip-path:url(#SVGID_2_);fill:#FFFFFF;}
	.st1{clip-path:url(#SVGID_2_);fill:none;stroke:#FFFFFF;stroke-width:0.603;}
</style>
<g>
	<defs>
		<rect id="SVGID_1_" x="6" y="7.8" width="84.4" height="46.6"/>
	</defs>
	<clipPath id="SVGID_2_">
		<use xlink:href="#SVGID_1_"  style="overflow:visible;"/>
	</clipPath>
	<path class="st0" d="M19,20.5h5.1v1.8h0.1c1.1-1.6,2.6-2.1,4.6-2.1c1.5,0,3.1,0.8,3.8,2.1c0.2-0.2,1.3-2.1,4.8-2.1
		c3.6,0,4.8,2.4,4.8,4.6V34h-5.3v-7.3c0-1.3-0.1-2.4-1.7-2.4c-1.3,0-1.8,1-1.8,2.4V34h-5.3v-7.3c0-1.3-0.1-2.4-1.8-2.4
		c-1.3,0-1.8,1-1.8,2.4V34H19V20.5z"/>
	<path class="st1" d="M19,20.5h5.1v1.8h0.1c1.1-1.6,2.6-2.1,4.6-2.1c1.5,0,3.1,0.8,3.8,2.1c0.2-0.2,1.3-2.1,4.8-2.1
		c3.6,0,4.8,2.4,4.8,4.6V34h-5.3v-7.3c0-1.3-0.1-2.4-1.7-2.4c-1.3,0-1.8,1-1.8,2.4V34h-5.3v-7.3c0-1.3-0.1-2.4-1.8-2.4
		c-1.3,0-1.8,1-1.8,2.4V34H19V20.5z"/>
	<path class="st0" d="M51.3,28c-0.6,0.3-1.4,0.5-2.1,0.7c-1.2,0.3-1.8,0.5-1.8,1.5c0,0.6,0.7,1.3,1.7,1.3c1.2,0,2.1-0.7,2.2-2.1V28z
		 M56.4,31c0,1,0.1,2.2,0.6,3h-5.4c-0.1-0.4-0.2-0.9-0.2-1.3h-0.1c-1.1,1.3-2.8,1.6-4.5,1.6c-2.7,0-4.9-1.3-4.9-4.1
		c0-4.3,5.2-4.1,7.9-4.6c0.7-0.1,1.5-0.3,1.5-1.2c0-0.9-0.9-1.2-1.7-1.2c-1.6,0-2,0.8-2,1.4h-4.9c0.2-3.8,3.9-4.4,7.2-4.4
		c6.7,0,6.6,2.7,6.6,5.3V31z"/>
	<path class="st1" d="M51.3,28c-0.6,0.3-1.4,0.5-2.1,0.7c-1.2,0.3-1.8,0.5-1.8,1.5c0,0.6,0.7,1.3,1.7,1.3c1.2,0,2.1-0.7,2.2-2.1V28z
		 M56.4,31c0,1,0.1,2.2,0.6,3h-5.4c-0.1-0.4-0.2-0.9-0.2-1.3h-0.1c-1.1,1.3-2.8,1.6-4.5,1.6c-2.7,0-4.9-1.3-4.9-4.1
		c0-4.3,5.2-4.1,7.9-4.6c0.7-0.1,1.5-0.3,1.5-1.2c0-0.9-0.9-1.2-1.7-1.2c-1.6,0-2,0.8-2,1.4h-4.9c0.2-3.8,3.9-4.4,7.2-4.4
		c6.7,0,6.6,2.7,6.6,5.3V31z"/>
	<path class="st0" d="M24.3,41.9c-0.1-0.8-0.3-1.4-0.8-1.8c-0.4-0.4-1.1-0.6-1.9-0.6c-2.8,0-3.2,2.4-3.2,4.7c0,2.3,0.4,4.6,3.2,4.6
		c1.6,0,2.7-1.3,2.9-2.7h7c-0.7,5.1-4.8,7.9-10.1,7.9C15.6,54,11,50.1,11,44.2s4.7-9.9,10.5-9.9c5.1,0,9.4,2.4,9.8,7.6H24.3z"/>
	<path class="st1" d="M24.3,41.9c-0.1-0.8-0.3-1.4-0.8-1.8c-0.4-0.4-1.1-0.6-1.9-0.6c-2.8,0-3.2,2.4-3.2,4.7c0,2.3,0.4,4.6,3.2,4.6
		c1.6,0,2.7-1.3,2.9-2.7h7c-0.7,5.1-4.8,7.9-10.1,7.9C15.6,54,11,50.1,11,44.2s4.7-9.9,10.5-9.9c5.1,0,9.4,2.4,9.8,7.6H24.3z"/>
	<path class="st0" d="M43.6,45.1c-0.9,0.4-1.9,0.7-2.9,0.9c-1.6,0.4-2.5,0.8-2.5,2c0,0.9,1,1.7,2.3,1.7c1.7,0,3-1,3.1-2.9V45.1z
		 M50.7,49.3c0,1.4,0.1,3,0.9,4.2h-7.5c-0.2-0.5-0.3-1.3-0.3-1.8h-0.1c-1.6,1.7-3.8,2.2-6.2,2.2c-3.7,0-6.8-1.7-6.8-5.7
		c0-5.9,7.1-5.7,10.9-6.4c1-0.2,2-0.5,2-1.7c0-1.3-1.2-1.7-2.4-1.7c-2.3,0-2.7,1.1-2.8,1.9h-6.8c0.2-5.3,5.4-6.1,9.9-6.1
		c9.2,0,9.2,3.7,9.2,7.3V49.3z"/>
	<path class="st1" d="M43.6,45.1c-0.9,0.4-1.9,0.7-2.9,0.9c-1.6,0.4-2.5,0.8-2.5,2c0,0.9,1,1.7,2.3,1.7c1.7,0,3-1,3.1-2.9V45.1z
		 M50.7,49.3c0,1.4,0.1,3,0.9,4.2h-7.5c-0.2-0.5-0.3-1.3-0.3-1.8h-0.1c-1.6,1.7-3.8,2.2-6.2,2.2c-3.7,0-6.8-1.7-6.8-5.7
		c0-5.9,7.1-5.7,10.9-6.4c1-0.2,2-0.5,2-1.7c0-1.3-1.2-1.7-2.4-1.7c-2.3,0-2.7,1.1-2.8,1.9h-6.8c0.2-5.3,5.4-6.1,9.9-6.1
		c9.2,0,9.2,3.7,9.2,7.3V49.3z"/>
	<path class="st0" d="M62.9,40.1c0-0.6-0.4-1.1-0.9-1.4c-0.4-0.4-1-0.5-1.6-0.5c-1,0-2.2,0.2-2.2,1.4c0,0.5,0.4,0.8,0.9,1
		c1.2,0.5,4,0.7,6.5,1.4c2.5,0.8,4.6,2.2,4.6,5.2c0,5.2-5.1,6.6-9.8,6.6c-4.5,0-9.5-1.8-9.6-6.6h7c0,0.7,0.3,1.2,0.9,1.7
		c0.4,0.3,1.1,0.5,2,0.5c1,0,2.5-0.4,2.5-1.4c0-1.1-0.6-1.4-4.1-2c-5.6-0.9-7.9-2.7-7.9-5.9c0-4.7,5.3-6,9.1-6
		c4.2,0,9.2,1.1,9.4,5.9H62.9z"/>
	<path class="st1" d="M62.9,40.1c0-0.6-0.4-1.1-0.9-1.4c-0.4-0.4-1-0.5-1.6-0.5c-1,0-2.2,0.2-2.2,1.4c0,0.5,0.4,0.8,0.9,1
		c1.2,0.5,4,0.7,6.5,1.4c2.5,0.8,4.6,2.2,4.6,5.2c0,5.2-5.1,6.6-9.8,6.6c-4.5,0-9.5-1.8-9.6-6.6h7c0,0.7,0.3,1.2,0.9,1.7
		c0.4,0.3,1.1,0.5,2,0.5c1,0,2.5-0.4,2.5-1.4c0-1.1-0.6-1.4-4.1-2c-5.6-0.9-7.9-2.7-7.9-5.9c0-4.7,5.3-6,9.1-6
		c4.2,0,9.2,1.1,9.4,5.9H62.9z"/>
	<path class="st0" d="M70,27.8h7.4v9.1h0.1c1.3-1.4,2.9-2.5,6-2.5c3.5,0,6.6,2.1,6.6,6.4v12.9h-7.4v-9.8c0-2.2-0.3-3.7-2.4-3.7
		c-1.3,0-2.9,0.6-2.9,3.6v9.9H70V27.8z"/>
	<path class="st1" d="M70,27.8h7.4v9.1h0.1c1.3-1.4,2.9-2.5,6-2.5c3.5,0,6.6,2.1,6.6,6.4v12.9h-7.4v-9.8c0-2.2-0.3-3.7-2.4-3.7
		c-1.3,0-2.9,0.6-2.9,3.6v9.9H70V27.8z"/>
	<path class="st0" d="M6.3,8.4h4.4v1.5h0c0.9-1.3,2.3-1.8,3.9-1.8c1.3,0,2.7,0.6,3.2,1.8c0.2-0.1,1.1-1.8,4.1-1.8
		c3.1,0,4.1,2,4.1,3.9v7.9h-4.6v-6.3c0-1.1-0.1-2.1-1.5-2.1c-1.1,0-1.5,0.9-1.5,2.1v6.3h-4.6v-6.3c0-1.1-0.1-2.1-1.5-2.1
		c-1.1,0-1.5,0.9-1.5,2.1v6.3H6.3V8.4z"/>
	<path class="st1" d="M6.3,8.4h4.4v1.5h0c0.9-1.3,2.3-1.8,3.9-1.8c1.3,0,2.7,0.6,3.2,1.8c0.2-0.1,1.1-1.8,4.1-1.8
		c3.1,0,4.1,2,4.1,3.9v7.9h-4.6v-6.3c0-1.1-0.1-2.1-1.5-2.1c-1.1,0-1.5,0.9-1.5,2.1v6.3h-4.6v-6.3c0-1.1-0.1-2.1-1.5-2.1
		c-1.1,0-1.5,0.9-1.5,2.1v6.3H6.3V8.4z"/>
	<path class="st0" d="M33.9,14.7c-0.6,0.3-1.2,0.4-1.8,0.6c-1,0.2-1.5,0.5-1.5,1.2c0,0.5,0.6,1.1,1.4,1.1c1,0,1.8-0.6,1.9-1.8V14.7z
		 M38.3,17.3c0,0.9,0,1.8,0.6,2.6h-4.6c-0.1-0.3-0.2-0.8-0.2-1.1h0c-1,1.1-2.4,1.4-3.8,1.4c-2.3,0-4.2-1.1-4.2-3.5
		c0-3.6,4.4-3.5,6.7-3.9c0.6-0.1,1.2-0.3,1.2-1c0-0.8-0.8-1.1-1.5-1.1c-1.4,0-1.7,0.7-1.7,1.2h-4.2c0.1-3.2,3.3-3.8,6.1-3.8
		c5.7,0,5.6,2.3,5.6,4.5V17.3z"/>
	<path class="st1" d="M33.9,14.7c-0.6,0.3-1.2,0.4-1.8,0.6c-1,0.2-1.5,0.5-1.5,1.2c0,0.5,0.6,1.1,1.4,1.1c1,0,1.8-0.6,1.9-1.8V14.7z
		 M38.3,17.3c0,0.9,0,1.8,0.6,2.6h-4.6c-0.1-0.3-0.2-0.8-0.2-1.1h0c-1,1.1-2.4,1.4-3.8,1.4c-2.3,0-4.2-1.1-4.2-3.5
		c0-3.6,4.4-3.5,6.7-3.9c0.6-0.1,1.2-0.3,1.2-1c0-0.8-0.8-1.1-1.5-1.1c-1.4,0-1.7,0.7-1.7,1.2h-4.2c0.1-3.2,3.3-3.8,6.1-3.8
		c5.7,0,5.6,2.3,5.6,4.5V17.3z"/>
</g>
</svg>
