<?xml version="1.0" encoding="utf-8"?>
<!-- Generator: Adobe Illustrator 19.2.1, SVG Export Plug-In . SVG Version: 6.00 Build 0)  -->
<svg version="1.1" id="Layer_1" xmlns="http://www.w3.org/2000/svg" xmlns:xlink="http://www.w3.org/1999/xlink" x="0px" y="0px"
	 viewBox="0 0 104.2 62.1" style="enable-background:new 0 0 104.2 62.1;" xml:space="preserve">
<style type="text/css">
	.st0{fill:#FFFFFF;}
	.st1{clip-path:url(#SVGID_2_);fill:#FFFFFF;}
	.st2{clip-path:url(#SVGID_4_);fill:#FFFFFF;}
	.st3{clip-path:url(#SVGID_4_);fill:#CED2E6;}
	.st4{clip-path:url(#SVGID_4_);fill:none;stroke:#FFFFFF;stroke-width:0.366;stroke-miterlimit:2.613;}
	.st5{clip-path:url(#SVGID_6_);fill:#FFFFFF;}
</style>
<g>
	<polygon class="st0" points="33.6,30.5 33.6,24.5 32.3,24.5 32.3,29.3 30,24.5 28,24.5 28,30.5 29.2,30.5 29.2,25.5 31.7,30.5 	"/>
	<polygon class="st0" points="39.7,25.5 41.6,25.5 41.6,30.5 42.9,30.5 42.9,25.5 44.8,25.5 44.8,24.5 39.7,24.5 	"/>
	<rect x="45.4" y="24.5" class="st0" width="1.4" height="6"/>
	<polygon class="st0" points="60.1,30.5 60.1,24.5 58.8,24.5 58.8,29.3 56.5,24.5 54.5,24.5 54.5,30.5 55.7,30.5 55.7,25.6 
		55.8,25.5 58.2,30.5 	"/>
	<polygon class="st0" points="71.4,30.5 71.4,29.5 68.7,29.5 68.7,24.5 67.4,24.5 67.4,30.5 	"/>
	<polygon class="st0" points="72.1,30.5 76.3,30.5 76.3,29.5 73.4,29.5 73.4,27.9 76.1,27.9 76.1,26.9 73.4,26.9 73.4,25.5 
		76.2,25.5 76.2,24.5 72.1,24.5 	"/>
	<rect x="19.3" y="24.5" class="st0" width="5.8" height="6.1"/>
	<rect x="79.1" y="24.5" class="st0" width="5.7" height="6.1"/>
	<polygon class="st0" points="27.9,45.4 27.9,51.4 31.9,51.4 31.9,50.4 29.3,50.4 29.3,45.4 	"/>
	<polygon class="st0" points="43.8,45.4 43.8,46.4 45.6,46.4 45.6,51.4 47,51.4 47,46.4 48.8,46.4 48.8,45.4 	"/>
	<polygon class="st0" points="51.8,45.4 51.8,51.4 56.1,51.4 56.1,50.4 53.2,50.4 53.2,48.7 55.9,48.7 55.9,47.8 53.2,47.8 
		53.2,46.4 56,46.4 56,45.4 	"/>
	<rect x="67.8" y="45.4" class="st0" width="1.3" height="6"/>
	<g>
		<defs>
			<rect id="SVGID_1_" x="17.5" y="10.6" width="69.2" height="40.9"/>
		</defs>
		<clipPath id="SVGID_2_">
			<use xlink:href="#SVGID_1_"  style="overflow:visible;"/>
		</clipPath>
		<path class="st1" d="M74.9,45.4v4c0,0.4,0,1.2-0.8,1.2c-0.6,0-0.7-0.7-0.8-1.2h-1.3c0.1,1.2,0.5,2,2,2.1h0.1h0.1
			c1.1,0,2-0.7,2-2.1v-4H74.9z"/>
	</g>
	<rect x="79.1" y="45.3" class="st0" width="5.7" height="6.1"/>
	<rect x="19.3" y="45.3" class="st0" width="5.7" height="6.1"/>
	<g>
		<defs>
			<rect id="SVGID_3_" x="17.5" y="10.6" width="69.2" height="40.9"/>
		</defs>
		<clipPath id="SVGID_4_">
			<use xlink:href="#SVGID_3_"  style="overflow:visible;"/>
		</clipPath>
		<path class="st2" d="M55.7,17.2v-4.7c0-1.8-4.4-1.8-5.8-1.8c-12-0.4-23.3,1.8-32.4,6.5c1.3,0.4,2.2,0.9,3.7,1.3l-2.5,3.8
			c9.3-4.5,17.7-6.6,29.7-6.6v4.6c0,1.8,4.5,2,5.9,2c12,0.1,23.3-1.8,32.4-6.6c-1.3-0.4-2.2-0.9-3.7-1.3l2.5-3.8
			C76.1,15.2,67.7,17.2,55.7,17.2"/>
		<path class="st3" d="M55.7,12.4v4.8c-1.2,0-7.2,0.1-7.2-1.8C48.5,13.3,55.7,15.1,55.7,12.4"/>
		<path class="st2" d="M63.7,43.2c2.5,0,3.9-1.9,3.9-5.2c0-3.3-1.4-5.2-3.9-5.2c-2.5,0-4,1.9-4,5.2C59.7,41.3,61.1,43.2,63.7,43.2
			 M65.4,38c0,1.5-0.3,3.2-1.7,3.2c-1.5,0-1.8-1.7-1.8-3.2c0-1.5,0.3-3.3,1.8-3.3C65.1,34.8,65.4,36.5,65.4,38 M84.6,43v-2h-3.7V39
			h3.4v-1.9h-3.4V35h3.7v-1.9h-5.8v10H84.6z M71.3,35h1c1.1,0,2.2,1,2.2,3.1c0,2.1-1.1,3.1-2.2,3.1h-1V35z M69.2,33.1v10h3.2
			c2.6,0,4.3-1.3,4.3-5c0-3.7-1.7-5-4.3-5H69.2z M58.7,36.2c0-2.5-1.8-3.4-3.7-3.4c-2.4,0-3.7,1.9-3.7,5.2c0,3.3,1.3,5.2,3.7,5.2
			c1.9,0,3.7-0.9,3.7-3.4h-2.2c-0.1,1-0.6,1.5-1.5,1.5c-1.2,0-1.4-1.7-1.4-3.2c0-1.5,0.2-3.4,1.4-3.4c0.9,0,1.4,0.5,1.5,1.4H58.7z
			 M46.3,43h2.1v-8h2.4v-2H44v2h2.3V43z M43.2,36c0.1-2.4-1.5-3.1-3.1-3.2c-1.6,0-3.2,0.7-3.3,3c0,1.1,0.4,2,1.2,2.5
			c1.7,0.9,3.2,0.6,3.2,2c0,0.7-0.6,1-1.1,1c-0.8,0-1.3-0.5-1.3-1.5h-2.1c0,2.7,1.6,3.4,3.4,3.4c1.8,0,3.3-1,3.3-3.1
			c0-2.7-1.8-2.9-3.1-3.3c-0.6-0.2-1.2-0.4-1.3-1.2c0-0.5,0.4-0.9,0.9-0.9c0.4,0,0.7,0.1,0.9,0.3c0.2,0.2,0.3,0.5,0.3,0.9H43.2z
			 M31.4,43.3c2.5,0,3.9-1.9,3.9-5.2c0-3.3-1.4-5.2-3.9-5.2c-2.5,0-4,1.9-4,5.2C27.4,41.3,28.9,43.2,31.4,43.3 M33.1,38.1
			c0,1.5-0.3,3.2-1.7,3.2c-1.5,0-1.8-1.8-1.8-3.2c0-1.6,0.3-3.3,1.8-3.3C32.9,34.8,33.1,36.5,33.1,38.1 M21.5,37.6V35h1.1
			c0.8,0.1,1.2,0.6,1.2,1.3c0,0.7-0.4,1.2-1.2,1.3H21.5z M21.5,43v-3.6H23c1.9,0,3.1-0.8,3.1-3.2c0-2.4-1.2-3.2-3.1-3.2h-3.5v10
			H21.5z"/>
		<path class="st4" d="M63.7,43.2c2.5,0,3.9-1.9,3.9-5.2c0-3.3-1.4-5.2-3.9-5.2c-2.5,0-4,1.9-4,5.2C59.7,41.3,61.1,43.2,63.7,43.2z
			 M65.4,38c0,1.5-0.3,3.2-1.7,3.2c-1.5,0-1.8-1.7-1.8-3.2c0-1.5,0.3-3.3,1.8-3.3C65.1,34.8,65.4,36.5,65.4,38z M84.6,43v-2h-3.7V39
			h3.4v-1.9h-3.4V35h3.7v-1.9h-5.8v10H84.6z M71.3,35h1c1.1,0,2.2,1,2.2,3.1c0,2.1-1.1,3.1-2.2,3.1h-1V35z M69.2,33.1v10h3.2
			c2.6,0,4.3-1.3,4.3-5c0-3.7-1.7-5-4.3-5H69.2z M58.7,36.2c0-2.5-1.8-3.4-3.7-3.4c-2.4,0-3.7,1.9-3.7,5.2c0,3.3,1.3,5.2,3.7,5.2
			c1.9,0,3.7-0.9,3.7-3.4h-2.2c-0.1,1-0.6,1.5-1.5,1.5c-1.2,0-1.4-1.7-1.4-3.2c0-1.5,0.2-3.4,1.4-3.4c0.9,0,1.4,0.5,1.5,1.4H58.7z
			 M46.3,43h2.1v-8h2.4v-2H44v2h2.3V43z M43.2,36c0.1-2.4-1.5-3.1-3.1-3.2c-1.6,0-3.2,0.7-3.3,3c0,1.1,0.4,2,1.2,2.5
			c1.7,0.9,3.2,0.6,3.2,2c0,0.7-0.6,1-1.1,1c-0.8,0-1.3-0.5-1.3-1.5h-2.1c0,2.7,1.6,3.4,3.4,3.4c1.8,0,3.3-1,3.3-3.1
			c0-2.7-1.8-2.9-3.1-3.3c-0.6-0.2-1.2-0.4-1.3-1.2c0-0.5,0.4-0.9,0.9-0.9c0.4,0,0.7,0.1,0.9,0.3c0.2,0.2,0.3,0.5,0.3,0.9H43.2z
			 M31.4,43.3c2.5,0,3.9-1.9,3.9-5.2c0-3.3-1.4-5.2-3.9-5.2c-2.5,0-4,1.9-4,5.2C27.4,41.3,28.9,43.2,31.4,43.3z M33.1,38.1
			c0,1.5-0.3,3.2-1.7,3.2c-1.5,0-1.8-1.8-1.8-3.2c0-1.6,0.3-3.3,1.8-3.3C32.9,34.8,33.1,36.5,33.1,38.1z M21.5,37.6V35h1.1
			c0.8,0.1,1.2,0.6,1.2,1.3c0,0.7-0.4,1.2-1.2,1.3H21.5z M21.5,43v-3.6H23c1.9,0,3.1-0.8,3.1-3.2c0-2.4-1.2-3.2-3.1-3.2h-3.5v10
			H21.5z"/>
		<path class="st2" d="M50.6,25.3c1.3,0,1.6,1.2,1.6,2.2c0,1-0.2,2.2-1.6,2.2c-1.3,0-1.6-1.2-1.6-2.2C49,26.5,49.3,25.3,50.6,25.3
			 M50.6,30.6c2.1,0,3-1.3,3-3.1c0-1.8-0.9-3.1-3-3.1c-2.1,0-3,1.3-3,3.1C47.6,29.3,48.5,30.6,50.6,30.6"/>
	</g>
	<path class="st0" d="M62.8,28.3l1-2.6l0.9,2.6H62.8z M62,30.5l0.5-1.3h2.5l0.4,1.3h1.4l-2.2-6H63l-2.3,6H62z"/>
	<path class="st0" d="M36.3,28.3l0.9-2.6h0l0.9,2.6H36.3z M35.5,30.5l0.5-1.3h2.5l0.5,1.3h1.4l-2.2-6h-1.6l-2.2,6H35.5z"/>
	<g>
		<defs>
			<rect id="SVGID_5_" x="17.5" y="10.6" width="69.2" height="40.9"/>
		</defs>
		<clipPath id="SVGID_6_">
			<use xlink:href="#SVGID_5_"  style="overflow:visible;"/>
		</clipPath>
		<path class="st5" d="M37.9,46.2c1.3,0,1.6,1.2,1.6,2.2c0,1-0.2,2.2-1.6,2.2c-1.3,0-1.6-1.2-1.6-2.2C36.3,47.3,36.6,46.2,37.9,46.2
			 M37.9,51.5C37.9,51.5,37.9,51.5,37.9,51.5c2.1,0,3-1.4,3-3.1c0-1.8-0.9-3.1-3-3.1c-2.1,0-3,1.3-3,3.1
			C34.9,50.1,35.8,51.5,37.9,51.5C37.8,51.5,37.8,51.5,37.9,51.5"/>
		<path class="st5" d="M60.9,49h1.4c0.4,0,0.5,0.5,0.6,0.8c0.1,0.6,0.1,1.1,0.2,1.6h1.5c-0.3-0.3-0.3-1-0.4-1.4
			c-0.1-0.8-0.1-1.4-1.2-1.5v-0.1c0.8-0.1,1.3-0.7,1.3-1.4c0-1.2-1.1-1.6-2.2-1.6h-2.7v6h1.4V49z M60.9,46.4H62c0.6,0,0.9,0.2,1,0.7
			c0,0.6-0.4,0.8-1,0.8h-1.1V46.4z"/>
	</g>
</g>
</svg>
