<?xml version="1.0" encoding="utf-8"?>
<!-- Generator: Adobe Illustrator 19.2.1, SVG Export Plug-In . SVG Version: 6.00 Build 0)  -->
<svg version="1.1" id="Laag_1" xmlns="http://www.w3.org/2000/svg" xmlns:xlink="http://www.w3.org/1999/xlink" x="0px" y="0px"
	 viewBox="0 0 85 113.4" style="enable-background:new 0 0 85 113.4;" xml:space="preserve">
<style type="text/css">
	.st0{clip-path:url(#SVGID_2_);fill:#FFFFFF;}
</style>
<g>
	<defs>
		<rect id="SVGID_1_" x="8" y="12.4" width="68" height="90"/>
	</defs>
	<clipPath id="SVGID_2_">
		<use xlink:href="#SVGID_1_"  style="overflow:visible;"/>
	</clipPath>
	<path class="st0" d="M24.5,62h42.3v-3.7H24.5V62z M45.1,39.9h21.7v-3.7H45.1V39.9z M24.5,32.6h42.3v-9.2H24.5V32.6z M24.5,54.6
		h16.5V36.3H24.5V54.6z M24.5,69.3h42.3v-3.7H24.5V69.3z M45.1,47.3h21.7v-3.7H45.1V47.3z M24.5,76.7h42.3V73H24.5V76.7z M45.1,54.6
		h21.7V51H45.1V54.6z M24.5,84h42.3v-3.7H24.5V84z M70.5,16.1c1,0,1.8,0.8,1.8,1.8v71.6c0,1-0.8,1.8-1.8,1.8H20.9
		c-1,0-1.8-0.8-1.8-1.8V17.9c0-1,0.8-1.8,1.8-1.8H70.5z M15.4,17.9v71.6c0,3,2.5,5.5,5.5,5.5h49.6c3,0,5.5-2.5,5.5-5.5V17.9
		c0-3-2.5-5.5-5.5-5.5H20.9C17.8,12.4,15.4,14.9,15.4,17.9 M68.6,98.7v0.7c0,1.6-1.3,3-3,3H11c-1.7,0-3-1.3-3-3V22.7
		c0-1.6,1.3-3,3-3h0.7v76c0,1.7,1.4,3,3,3H68.6z"/>
</g>
</svg>
