<?xml version="1.0" encoding="utf-8"?>
<!-- Generator: Adobe Illustrator 19.2.1, SVG Export Plug-In . SVG Version: 6.00 Build 0)  -->
<svg version="1.1" id="Layer_1" xmlns="http://www.w3.org/2000/svg" xmlns:xlink="http://www.w3.org/1999/xlink" x="0px" y="0px"
	 viewBox="0 0 96.4 96.4" style="enable-background:new 0 0 96.4 96.4;" xml:space="preserve">
<style type="text/css">
	.st0{fill:#FFFFFF;}
</style>
<g>
	<g>
		<path class="st0" d="M44.2,48.2c-0.3-1.4,0.3-7.7,1.2-16.4l-13.9,0.6l-1.1,10.2c-0.1,1.4-5.1,4.9-5.2,9.1
			c-0.1,4.2,6.2,8.2,6.8,10.1c0.6,1.9-0.2,9.1,1.2,17.8c1.4,8.7,3.5,15.7,9.5,14.3c7.7-1.7,4.8-15.5,4.8-16.8
			C47.6,75.9,44.8,51.1,44.2,48.2z"/>
		<path class="st0" d="M46.3,23.3l-13.9,0.7l-0.6,5.3l13.9-0.7C45.8,27.7,46.2,24.2,46.3,23.3z"/>
		<path class="st0" d="M32.7,21.2l13.9-0.4c0.1-1,1.2-10.2,1.2-10.2c0-0.2,0-0.4,0-0.5c0,0,0-0.1,0-0.1l0,0
			c-0.2-0.7-0.8-1.3-1.6-1.3l-3.8-0.3l-3.1-0.3l-3.7-0.3c-1-0.1-1.8,0.6-1.9,1.6l-0.3,3.1L32.7,21.2z"/>
	</g>
	<g>
		<path class="st0" d="M68.6,48.9c-0.4-1.3-0.5-7.7-0.5-16.4l-13.7,2l0,10.3c0,1.4-4.6,5.4-4.2,9.6c0.4,4.2,7,7.5,7.8,9.4
			c0.8,1.9,0.8,9,3.1,17.6c2.3,8.5,5,15.2,10.9,13.3c7.5-2.5,3.2-15.9,3-17.2C74.7,76.1,69.4,51.7,68.6,48.9z"/>
		<path class="st0" d="M68,23.9L54.3,26l-0.1,5.3L68,29.3C68,28.3,68,24.8,68,23.9z"/>
		<path class="st0" d="M54.3,23.2l13.8-1.8c0-1,0.2-10.2,0.2-10.2c0-0.2,0-0.4-0.1-0.5c0,0,0-0.1,0-0.1l0,0
			c-0.3-0.7-0.9-1.2-1.7-1.2l-3.8,0.1l-3.1,0l-3.7,0.1c-1,0-1.8,0.8-1.8,1.8l0,3.1L54.3,23.2z"/>
	</g>
	<path class="st0" d="M93.2,15.7c0,0-35.2,1.5-45.1,1.5c-12.7,0-45.1-2.4-45.1-2.4c-0.8,0-1.5-0.7-1.5-1.5v0c0-0.8,0.7-1.5,1.5-1.5
		c0,0,35,2.4,45.1,2.4c10,0,45.1-1.5,45.1-1.5c0.8,0,1.5,0.7,1.5,1.5v0C94.8,15.1,94.1,15.7,93.2,15.7z"/>
	<path class="st0" d="M61.6,11.1h-0.8c-0.9,0-1.6-0.7-1.6-1.6V3.1c0-0.9,0.7-1.6,1.6-1.6h0.8c0.9,0,1.6,0.7,1.6,1.6v6.4
		C63.2,10.4,62.5,11.1,61.6,11.1z"/>
	<path class="st0" d="M40.3,11.1L39.5,11c-0.9-0.1-1.5-0.9-1.3-1.8L39,2.9c0.1-0.9,0.9-1.5,1.8-1.3l0.8,0.1c0.9,0.1,1.5,0.9,1.3,1.8
		L42,9.8C41.9,10.6,41.1,11.2,40.3,11.1z"/>
</g>
</svg>
