<?xml version="1.0" encoding="utf-8"?>
<!-- Generator: Adobe Illustrator 19.2.1, SVG Export Plug-In . SVG Version: 6.00 Build 0)  -->
<svg version="1.1" id="Layer_1" xmlns="http://www.w3.org/2000/svg" xmlns:xlink="http://www.w3.org/1999/xlink" x="0px" y="0px"
	 viewBox="0 0 104.2 62.1" style="enable-background:new 0 0 104.2 62.1;" xml:space="preserve">
<style type="text/css">
	.st0{clip-path:url(#SVGID_2_);fill:#FFFFFF;}
	.st1{clip-path:url(#SVGID_2_);fill:none;stroke:#FFFFFF;stroke-width:0.645;stroke-miterlimit:10;}
	.st2{clip-path:url(#SVGID_2_);fill:none;stroke:#FFFFFF;stroke-width:0.997;stroke-dasharray:2.963,1.966;}
	.st3{clip-path:url(#SVGID_2_);fill:none;stroke:#FFFFFF;stroke-width:0.161;}
	.st4{fill:#FFFFFF;}
	.st5{fill:none;stroke:#FFFFFF;stroke-width:0.161;}
	.st6{clip-path:url(#SVGID_4_);fill:#FFFFFF;}
	.st7{clip-path:url(#SVGID_4_);fill:none;stroke:#FFFFFF;stroke-width:0.161;}
	.st8{clip-path:url(#SVGID_6_);fill:#FFFFFF;}
	.st9{clip-path:url(#SVGID_8_);fill:#FFFFFF;}
	.st10{clip-path:url(#SVGID_10_);fill:#FFFFFF;}
	.st11{clip-path:url(#SVGID_10_);fill:none;stroke:#FFFFFF;stroke-width:0.161;}
</style>
<g>
	<g>
		<defs>
			<rect id="SVGID_1_" x="3.5" y="6.5" width="97.1" height="49.2"/>
		</defs>
		<clipPath id="SVGID_2_">
			<use xlink:href="#SVGID_1_"  style="overflow:visible;"/>
		</clipPath>
		<path class="st0" d="M98.2,39.6c-0.5,0.2-1.2,0.4-2,0.5c-0.3,0-0.8,0.1-1.5,0.1c-0.7,0-1.9,0.1-3.7,0.2c-0.3,0.5-0.7,0.9-1.2,1.3
			c-0.5,0.4-1.1,0.7-1.8,1c0.2,0.2,0.4,0.3,0.5,0.5c0.1,0.2,0.2,0.4,0.2,0.6c0.1,0.5-0.1,0.9-0.4,1.3c-0.3,0.4-0.7,0.6-1.2,0.7
			c-0.5,0.1-0.9,0-1.2-0.3c-0.3-0.2-0.5-0.6-0.6-1c0-0.3,0-0.6,0.2-0.9c0.2-0.3,0.4-0.5,0.7-0.7c0.1-0.1,0.3-0.1,0.6-0.3
			c0.3-0.1,0.6-0.2,0.8-0.3c0.6-0.2,1.1-0.5,1.5-0.9c0.4-0.4,0.7-0.9,1-1.4c-0.4-0.3-0.8-0.5-1.2-0.7c-0.4-0.1-0.7-0.2-1.1-0.1
			c-0.2,0-0.6,0.1-1,0.3c-0.4,0.2-0.8,0.3-1,0.3c-0.5,0.1-0.9,0-1.2-0.3c-0.3-0.2-0.5-0.6-0.6-1c-0.1-0.5,0.1-0.9,0.4-1.3
			c0.3-0.4,0.8-0.6,1.3-0.7c0.5-0.1,0.9,0,1.2,0.3c0.3,0.3,0.5,0.6,0.6,1.1c0,0.1,0,0.3,0,0.4c0,0.2-0.1,0.3-0.1,0.5l0.3,0
			c0.5-0.1,0.9-0.1,1.4-0.1c0.5,0,1.1-0.1,1.6-0.1l1.9-2.9l1.5,0l-1.8,2.8l7.2,0C99.2,39,98.7,39.3,98.2,39.6 M86.6,37.2
			c-0.2-0.2-0.5-0.2-0.8-0.2c-0.4,0-0.7,0.2-0.9,0.5c-0.2,0.3-0.3,0.6-0.3,1c0,0.3,0.2,0.5,0.4,0.7c0.2,0.2,0.5,0.2,0.8,0.2
			c0.4,0,0.7-0.2,0.9-0.5c0.2-0.3,0.3-0.6,0.3-0.9C86.9,37.6,86.8,37.4,86.6,37.2 M87.8,43.3c-0.2-0.2-0.4-0.2-0.7-0.2
			c-0.4,0-0.7,0.2-0.9,0.5c-0.3,0.3-0.4,0.6-0.3,0.9c0,0.3,0.2,0.5,0.4,0.7c0.2,0.2,0.5,0.2,0.8,0.2c0.4,0,0.7-0.2,0.9-0.5
			c0.2-0.3,0.3-0.6,0.3-0.9C88.1,43.6,88,43.4,87.8,43.3"/>
		<path class="st1" d="M98.2,39.6c-0.5,0.2-1.2,0.4-2,0.5c-0.3,0-0.8,0.1-1.5,0.1c-0.7,0-1.9,0.1-3.7,0.2c-0.3,0.5-0.7,0.9-1.2,1.3
			c-0.5,0.4-1.1,0.7-1.8,1c0.2,0.2,0.4,0.3,0.5,0.5c0.1,0.2,0.2,0.4,0.2,0.6c0.1,0.5-0.1,0.9-0.4,1.3c-0.3,0.4-0.7,0.6-1.2,0.7
			c-0.5,0.1-0.9,0-1.2-0.3c-0.3-0.2-0.5-0.6-0.6-1c0-0.3,0-0.6,0.2-0.9c0.2-0.3,0.4-0.5,0.7-0.7c0.1-0.1,0.3-0.1,0.6-0.3
			c0.3-0.1,0.6-0.2,0.8-0.3c0.6-0.2,1.1-0.5,1.5-0.9c0.4-0.4,0.7-0.9,1-1.4c-0.4-0.3-0.8-0.5-1.2-0.7c-0.4-0.1-0.7-0.2-1.1-0.1
			c-0.2,0-0.6,0.1-1,0.3c-0.4,0.2-0.8,0.3-1,0.3c-0.5,0.1-0.9,0-1.2-0.3c-0.3-0.2-0.5-0.6-0.6-1c-0.1-0.5,0.1-0.9,0.4-1.3
			c0.3-0.4,0.8-0.6,1.3-0.7c0.5-0.1,0.9,0,1.2,0.3c0.3,0.3,0.5,0.6,0.6,1.1c0,0.1,0,0.3,0,0.4c0,0.2-0.1,0.3-0.1,0.5l0.3,0
			c0.5-0.1,0.9-0.1,1.4-0.1c0.5,0,1.1-0.1,1.6-0.1l1.9-2.9l1.5,0l-1.8,2.8l7.2,0C99.2,39,98.7,39.3,98.2,39.6 M86.6,37.2
			c-0.2-0.2-0.5-0.2-0.8-0.2c-0.4,0-0.7,0.2-0.9,0.5c-0.2,0.3-0.3,0.6-0.3,1c0,0.3,0.2,0.5,0.4,0.7c0.2,0.2,0.5,0.2,0.8,0.2
			c0.4,0,0.7-0.2,0.9-0.5c0.2-0.3,0.3-0.6,0.3-0.9C86.9,37.6,86.8,37.4,86.6,37.2z M87.8,43.3c-0.2-0.2-0.4-0.2-0.7-0.2
			c-0.4,0-0.7,0.2-0.9,0.5c-0.3,0.3-0.4,0.6-0.3,0.9c0,0.3,0.2,0.5,0.4,0.7c0.2,0.2,0.5,0.2,0.8,0.2c0.4,0,0.7-0.2,0.9-0.5
			c0.2-0.3,0.3-0.6,0.3-0.9C88.1,43.6,88,43.4,87.8,43.3z"/>
		<line class="st2" x1="3.8" y1="35.4" x2="100.4" y2="35.6"/>
		<path class="st0" d="M6.2,13.4c0,1.3,1,1.8,2.2,1.8c0.8,0,1.9-0.2,1.9-1.2c0-1.1-1.5-1.3-2.9-1.6c-1.5-0.4-3-1-3-2.8
			c0-2,1.9-3,3.7-3c2.1,0,4,0.9,4,3.2H10C9.9,8.5,9.1,8.2,8,8.2c-0.7,0-1.5,0.3-1.5,1.1c0,0.8,0.5,0.9,3,1.5
			c0.7,0.2,2.9,0.6,2.9,2.9c0,1.8-1.4,3.2-4.1,3.2c-2.2,0-4.3-1.1-4.2-3.5H6.2z"/>
		<path class="st3" d="M6.2,13.4c0,1.3,1,1.8,2.2,1.8c0.8,0,1.9-0.2,1.9-1.2c0-1.1-1.5-1.3-2.9-1.6c-1.5-0.4-3-1-3-2.8
			c0-2,1.9-3,3.7-3c2.1,0,4,0.9,4,3.2H10C9.9,8.5,9.1,8.2,8,8.2c-0.7,0-1.5,0.3-1.5,1.1c0,0.8,0.5,0.9,3,1.5
			c0.7,0.2,2.9,0.6,2.9,2.9c0,1.8-1.4,3.2-4.1,3.2c-2.2,0-4.3-1.1-4.2-3.5H6.2z"/>
		<path class="st0" d="M18.7,12c-0.1-0.8-0.6-1.2-1.5-1.2c-1.3,0-1.7,1.3-1.7,2.3c0,1,0.4,2.3,1.6,2.3c0.9,0,1.4-0.6,1.6-1.5h1.9
			c-0.2,1.9-1.6,2.9-3.5,2.9c-2.2,0-3.6-1.5-3.6-3.7c0-2.2,1.3-3.9,3.7-3.9c1.7,0,3.3,0.9,3.4,2.7H18.7z"/>
		<path class="st3" d="M18.7,12c-0.1-0.8-0.6-1.2-1.5-1.2c-1.3,0-1.7,1.3-1.7,2.3c0,1,0.4,2.3,1.6,2.3c0.9,0,1.4-0.6,1.6-1.5h1.9
			c-0.2,1.9-1.6,2.9-3.5,2.9c-2.2,0-3.6-1.5-3.6-3.7c0-2.2,1.3-3.9,3.7-3.9c1.7,0,3.3,0.9,3.4,2.7H18.7z"/>
		<path class="st0" d="M22,6.8h2v3.7h0c0.5-0.8,1.4-1.2,2.1-1.2c2.1,0,2.6,1.2,2.6,3v4.4h-2v-4.1c0-1.2-0.3-1.8-1.3-1.8
			c-1.1,0-1.5,0.6-1.5,2.1v3.8h-2V6.8z"/>
		<path class="st3" d="M22,6.8h2v3.7h0c0.5-0.8,1.4-1.2,2.1-1.2c2.1,0,2.6,1.2,2.6,3v4.4h-2v-4.1c0-1.2-0.3-1.8-1.3-1.8
			c-1.1,0-1.5,0.6-1.5,2.1v3.8h-2V6.8z"/>
		<path class="st0" d="M33.8,15.4c1.3,0,1.8-1.2,1.8-2.3c0-1.2-0.4-2.3-1.8-2.3c-1.3,0-1.7,1.2-1.7,2.3C32,14.3,32.4,15.4,33.8,15.4
			 M33.8,9.3c2.3,0,3.7,1.5,3.7,3.8c0,2.3-1.5,3.8-3.7,3.8c-2.3,0-3.7-1.5-3.7-3.8C30.1,10.8,31.5,9.3,33.8,9.3"/>
		<path class="st3" d="M33.8,15.4c1.3,0,1.8-1.2,1.8-2.3c0-1.2-0.4-2.3-1.8-2.3c-1.3,0-1.7,1.2-1.7,2.3C32,14.3,32.4,15.4,33.8,15.4
			z M33.8,9.3c2.3,0,3.7,1.5,3.7,3.8c0,2.3-1.5,3.8-3.7,3.8c-2.3,0-3.7-1.5-3.7-3.8C30.1,10.8,31.5,9.3,33.8,9.3z"/>
		<path class="st0" d="M38.8,9.5h1.9v1h0c0.5-0.8,1.4-1.2,2.2-1.2c2.1,0,2.6,1.2,2.6,3v4.4h-2v-4.1c0-1.2-0.3-1.8-1.3-1.8
			c-1.1,0-1.5,0.6-1.5,2.1v3.8h-2V9.5z"/>
		<path class="st3" d="M38.8,9.5h1.9v1h0c0.5-0.8,1.4-1.2,2.2-1.2c2.1,0,2.6,1.2,2.6,3v4.4h-2v-4.1c0-1.2-0.3-1.8-1.3-1.8
			c-1.1,0-1.5,0.6-1.5,2.1v3.8h-2V9.5z"/>
		<path class="st0" d="M51.9,12.3c-0.2-1-0.6-1.5-1.6-1.5c-1.3,0-1.6,1-1.6,1.5H51.9z M48.6,13.6c0.1,1.3,0.7,1.8,1.8,1.8
			c0.8,0,1.4-0.5,1.6-0.9h1.7c-0.6,1.7-1.7,2.4-3.4,2.4c-2.3,0-3.7-1.6-3.7-3.8c0-2.2,1.5-3.8,3.7-3.8c2.4,0,3.6,2.1,3.5,4.3H48.6z"
			/>
		<path class="st3" d="M51.9,12.3c-0.2-1-0.6-1.5-1.6-1.5c-1.3,0-1.6,1-1.6,1.5H51.9z M48.6,13.6c0.1,1.3,0.7,1.8,1.8,1.8
			c0.8,0,1.4-0.5,1.6-0.9h1.7c-0.6,1.7-1.7,2.4-3.4,2.4c-2.3,0-3.7-1.6-3.7-3.8c0-2.2,1.5-3.8,3.7-3.8c2.4,0,3.6,2.1,3.5,4.3H48.6z"
			/>
	</g>
	<polygon class="st4" points="59.1,6.8 61.3,6.8 61.3,10.9 65.1,6.8 67.9,6.8 64,10.7 68.2,16.7 65.5,16.7 62.5,12.2 61.3,13.5 
		61.3,16.7 59.1,16.7 	"/>
	<polygon class="st5" points="59.1,6.8 61.3,6.8 61.3,10.9 65.1,6.8 67.9,6.8 64,10.7 68.2,16.7 65.5,16.7 62.5,12.2 61.3,13.5 
		61.3,16.7 59.1,16.7 	"/>
	<rect x="69" y="6.8" class="st4" width="2" height="9.9"/>
	<rect x="69" y="6.8" class="st5" width="2" height="9.9"/>
	<g>
		<defs>
			<rect id="SVGID_3_" x="3.5" y="6.5" width="97.1" height="49.2"/>
		</defs>
		<clipPath id="SVGID_4_">
			<use xlink:href="#SVGID_3_"  style="overflow:visible;"/>
		</clipPath>
		<path class="st6" d="M77.3,12.3c-0.2-1-0.6-1.5-1.6-1.5c-1.3,0-1.6,1-1.6,1.5H77.3z M74.1,13.6c0.1,1.3,0.7,1.8,1.8,1.8
			c0.8,0,1.4-0.5,1.6-0.9h1.7c-0.6,1.7-1.7,2.4-3.4,2.4c-2.3,0-3.7-1.6-3.7-3.8c0-2.2,1.5-3.8,3.7-3.8c2.4,0,3.6,2.1,3.5,4.3H74.1z"
			/>
		<path class="st7" d="M77.3,12.3c-0.2-1-0.6-1.5-1.6-1.5c-1.3,0-1.6,1-1.6,1.5H77.3z M74.1,13.6c0.1,1.3,0.7,1.8,1.8,1.8
			c0.8,0,1.4-0.5,1.6-0.9h1.7c-0.6,1.7-1.7,2.4-3.4,2.4c-2.3,0-3.7-1.6-3.7-3.8c0-2.2,1.5-3.8,3.7-3.8c2.4,0,3.6,2.1,3.5,4.3H74.1z"
			/>
		<path class="st6" d="M80.5,9.5h1.9v1.3h0c0.4-0.9,1.3-1.5,2.3-1.5c0.1,0,0.3,0,0.4,0.1v1.8c-0.2,0-0.5-0.1-0.7-0.1
			c-1.4,0-1.9,1-1.9,2.3v3.2h-2V9.5z"/>
		<path class="st7" d="M80.5,9.5h1.9v1.3h0c0.4-0.9,1.3-1.5,2.3-1.5c0.1,0,0.3,0,0.4,0.1v1.8c-0.2,0-0.5-0.1-0.7-0.1
			c-1.4,0-1.9,1-1.9,2.3v3.2h-2V9.5z"/>
		<path class="st6" d="M90.7,12.3c-0.2-1-0.6-1.5-1.6-1.5c-1.3,0-1.6,1-1.6,1.5H90.7z M87.5,13.6c0.1,1.3,0.7,1.8,1.8,1.8
			c0.8,0,1.4-0.5,1.6-0.9h1.7c-0.6,1.7-1.7,2.4-3.4,2.4c-2.3,0-3.7-1.6-3.7-3.8c0-2.2,1.5-3.8,3.7-3.8c2.4,0,3.6,2.1,3.5,4.3H87.5z"
			/>
		<path class="st7" d="M90.7,12.3c-0.2-1-0.6-1.5-1.6-1.5c-1.3,0-1.6,1-1.6,1.5H90.7z M87.5,13.6c0.1,1.3,0.7,1.8,1.8,1.8
			c0.8,0,1.4-0.5,1.6-0.9h1.7c-0.6,1.7-1.7,2.4-3.4,2.4c-2.3,0-3.7-1.6-3.7-3.8c0-2.2,1.5-3.8,3.7-3.8c2.4,0,3.6,2.1,3.5,4.3H87.5z"
			/>
		<path class="st6" d="M93.9,9.5h1.9v1h0c0.5-0.8,1.4-1.2,2.2-1.2c2.1,0,2.6,1.2,2.6,3v4.4h-2v-4.1c0-1.2-0.3-1.8-1.3-1.8
			c-1.1,0-1.5,0.6-1.5,2.1v3.8h-2V9.5z"/>
		<path class="st7" d="M93.9,9.5h1.9v1h0c0.5-0.8,1.4-1.2,2.2-1.2c2.1,0,2.6,1.2,2.6,3v4.4h-2v-4.1c0-1.2-0.3-1.8-1.3-1.8
			c-1.1,0-1.5,0.6-1.5,2.1v3.8h-2V9.5z"/>
		<path class="st6" d="M10.7,23.6c-0.1-1-1.1-1.7-2.2-1.7c-2,0-2.7,1.7-2.7,3.4c0,1.7,0.7,3.3,2.7,3.3c1.3,0,2.1-0.9,2.3-2.2h2.1
			c-0.2,2.5-1.9,4.1-4.4,4.1c-3.1,0-4.9-2.3-4.9-5.2c0-2.9,1.8-5.2,4.9-5.2c2.2,0,4,1.3,4.3,3.6H10.7z"/>
		<path class="st7" d="M10.7,23.6c-0.1-1-1.1-1.7-2.2-1.7c-2,0-2.7,1.7-2.7,3.4c0,1.7,0.7,3.3,2.7,3.3c1.3,0,2.1-0.9,2.3-2.2h2.1
			c-0.2,2.5-1.9,4.1-4.4,4.1c-3.1,0-4.9-2.3-4.9-5.2c0-2.9,1.8-5.2,4.9-5.2c2.2,0,4,1.3,4.3,3.6H10.7z"/>
		<path class="st6" d="M18.6,26.7c-0.3,0.3-1,0.3-1.6,0.4c-0.6,0.1-1.2,0.3-1.2,1.1c0,0.7,0.6,0.9,1.2,0.9c1.5,0,1.6-1.2,1.6-1.7
			V26.7z M14.1,25.3c0.1-1.8,1.8-2.4,3.4-2.4c1.4,0,3.2,0.3,3.2,2v3.7c0,0.7,0.1,1.3,0.2,1.6h-2c-0.1-0.2-0.1-0.5-0.1-0.7
			c-0.6,0.7-1.5,0.9-2.4,0.9c-1.4,0-2.4-0.7-2.4-2.2c0-1.6,1.2-2,2.4-2.2c1.2-0.2,2.3-0.1,2.3-0.9c0-0.8-0.6-1-1.3-1
			c-0.8,0-1.2,0.3-1.3,1.1H14.1z"/>
		<path class="st7" d="M18.6,26.7c-0.3,0.3-1,0.3-1.6,0.4c-0.6,0.1-1.2,0.3-1.2,1.1c0,0.7,0.6,0.9,1.2,0.9c1.5,0,1.6-1.2,1.6-1.7
			V26.7z M14.1,25.3c0.1-1.8,1.8-2.4,3.4-2.4c1.4,0,3.2,0.3,3.2,2v3.7c0,0.7,0.1,1.3,0.2,1.6h-2c-0.1-0.2-0.1-0.5-0.1-0.7
			c-0.6,0.7-1.5,0.9-2.4,0.9c-1.4,0-2.4-0.7-2.4-2.2c0-1.6,1.2-2,2.4-2.2c1.2-0.2,2.3-0.1,2.3-0.9c0-0.8-0.6-1-1.3-1
			c-0.8,0-1.2,0.3-1.3,1.1H14.1z"/>
		<path class="st6" d="M22.2,23H24v1h0c0.5-0.7,1.3-1.2,2.2-1.2c0.9,0,1.7,0.3,2.1,1.2c0.4-0.6,1.2-1.2,2.2-1.2
			c1.5,0,2.6,0.7,2.6,2.6v4.8h-2v-4.1c0-1-0.1-1.8-1.2-1.8c-1.1,0-1.3,0.9-1.3,1.8v4h-2v-4c0-0.8,0.1-1.8-1.2-1.8
			c-0.4,0-1.3,0.2-1.3,1.7v4.2h-2V23z"/>
		<path class="st7" d="M22.2,23H24v1h0c0.5-0.7,1.3-1.2,2.2-1.2c0.9,0,1.7,0.3,2.1,1.2c0.4-0.6,1.2-1.2,2.2-1.2
			c1.5,0,2.6,0.7,2.6,2.6v4.8h-2v-4.1c0-1-0.1-1.8-1.2-1.8c-1.1,0-1.3,0.9-1.3,1.8v4h-2v-4c0-0.8,0.1-1.8-1.2-1.8
			c-0.4,0-1.3,0.2-1.3,1.7v4.2h-2V23z"/>
		<path class="st6" d="M40.1,26.7c0-1.1-0.5-2.3-1.7-2.3c-1.3,0-1.7,1.2-1.7,2.3c0,1.2,0.4,2.3,1.7,2.3
			C39.6,28.9,40.1,27.8,40.1,26.7 M34.7,23h1.9V24h0c0.5-0.8,1.3-1.1,2.1-1.1c2.3,0,3.3,1.8,3.3,3.9c0,1.9-1.1,3.7-3.2,3.7
			c-0.9,0-1.7-0.4-2.2-1.1h0v3.4h-2V23z"/>
		<path class="st7" d="M40.1,26.7c0-1.1-0.5-2.3-1.7-2.3c-1.3,0-1.7,1.2-1.7,2.3c0,1.2,0.4,2.3,1.7,2.3
			C39.6,28.9,40.1,27.8,40.1,26.7z M34.7,23h1.9V24h0c0.5-0.8,1.3-1.1,2.1-1.1c2.3,0,3.3,1.8,3.3,3.9c0,1.9-1.1,3.7-3.2,3.7
			c-0.9,0-1.7-0.4-2.2-1.1h0v3.4h-2V23z"/>
		<path class="st6" d="M47.7,26.7c-0.3,0.3-1,0.3-1.6,0.4c-0.6,0.1-1.2,0.3-1.2,1.1c0,0.7,0.6,0.9,1.2,0.9c1.5,0,1.6-1.2,1.6-1.7
			V26.7z M43.1,25.3c0.1-1.8,1.8-2.4,3.4-2.4c1.4,0,3.2,0.3,3.2,2v3.7c0,0.7,0.1,1.3,0.2,1.6h-2c-0.1-0.2-0.1-0.5-0.1-0.7
			c-0.6,0.7-1.5,0.9-2.4,0.9c-1.4,0-2.4-0.7-2.4-2.2c0-1.6,1.2-2,2.4-2.2c1.2-0.2,2.3-0.1,2.3-0.9c0-0.8-0.6-1-1.3-1
			c-0.8,0-1.2,0.3-1.3,1.1H43.1z"/>
		<path class="st7" d="M47.7,26.7c-0.3,0.3-1,0.3-1.6,0.4c-0.6,0.1-1.2,0.3-1.2,1.1c0,0.7,0.6,0.9,1.2,0.9c1.5,0,1.6-1.2,1.6-1.7
			V26.7z M43.1,25.3c0.1-1.8,1.8-2.4,3.4-2.4c1.4,0,3.2,0.3,3.2,2v3.7c0,0.7,0.1,1.3,0.2,1.6h-2c-0.1-0.2-0.1-0.5-0.1-0.7
			c-0.6,0.7-1.5,0.9-2.4,0.9c-1.4,0-2.4-0.7-2.4-2.2c0-1.6,1.2-2,2.4-2.2c1.2-0.2,2.3-0.1,2.3-0.9c0-0.8-0.6-1-1.3-1
			c-0.8,0-1.2,0.3-1.3,1.1H43.1z"/>
		<path class="st6" d="M59.7,23h1.9v1h0c0.5-0.8,1.4-1.2,2.2-1.2c2.1,0,2.6,1.2,2.6,3v4.4h-2v-4.1c0-1.2-0.3-1.8-1.3-1.8
			c-1.1,0-1.5,0.6-1.5,2.1v3.8h-2V23z"/>
		<path class="st7" d="M59.7,23h1.9v1h0c0.5-0.8,1.4-1.2,2.2-1.2c2.1,0,2.6,1.2,2.6,3v4.4h-2v-4.1c0-1.2-0.3-1.8-1.3-1.8
			c-1.1,0-1.5,0.6-1.5,2.1v3.8h-2V23z"/>
		<path class="st6" d="M72.8,25.9c-0.2-1-0.6-1.5-1.6-1.5c-1.3,0-1.6,1-1.6,1.5H72.8z M69.5,27.1c0.1,1.3,0.7,1.8,1.8,1.8
			c0.8,0,1.4-0.5,1.6-0.9h1.7c-0.6,1.7-1.7,2.4-3.4,2.4c-2.3,0-3.7-1.6-3.7-3.8c0-2.2,1.5-3.8,3.7-3.8c2.4,0,3.6,2.1,3.5,4.3H69.5z"
			/>
		<path class="st7" d="M72.8,25.9c-0.2-1-0.6-1.5-1.6-1.5c-1.3,0-1.6,1-1.6,1.5H72.8z M69.5,27.1c0.1,1.3,0.7,1.8,1.8,1.8
			c0.8,0,1.4-0.5,1.6-0.9h1.7c-0.6,1.7-1.7,2.4-3.4,2.4c-2.3,0-3.7-1.6-3.7-3.8c0-2.2,1.5-3.8,3.7-3.8c2.4,0,3.6,2.1,3.5,4.3H69.5z"
			/>
		<path class="st6" d="M8.3,41.5c-0.2-0.7-0.6-1.1-1.4-1.1c-1.2,0-1.8,1.1-1.8,2.2c0,1.1,0.5,2.2,1.8,2.2c0.9,0,1.4-0.7,1.5-1.5h1
			c-0.1,1.4-1.1,2.3-2.5,2.3c-1.7,0-2.8-1.4-2.8-3c0-1.7,1-3,2.8-3c1.3,0,2.3,0.7,2.5,2H8.3z"/>
	</g>
	<rect x="10" y="39.6" class="st4" width="0.9" height="5.8"/>
	<g>
		<defs>
			<rect id="SVGID_5_" x="3.5" y="6.5" width="97.1" height="49.2"/>
		</defs>
		<clipPath id="SVGID_6_">
			<use xlink:href="#SVGID_5_"  style="overflow:visible;"/>
		</clipPath>
		<path class="st8" d="M14.7,42.9c0-0.6-0.4-1.1-1.1-1.1c-0.6,0-1.1,0.5-1.1,1.1H14.7z M12.6,43.5c0,0.7,0.4,1.2,1.1,1.2
			c0.5,0,0.9-0.2,1-0.7h0.9c-0.2,0.9-1,1.4-1.9,1.4c-1.3,0-2-0.9-2-2.2c0-1.2,0.8-2.2,2-2.2c1.3,0,2.1,1.2,2,2.4H12.6z"/>
		<path class="st8" d="M18.9,43.3c-0.3,0.2-0.7,0.2-1.1,0.3c-0.4,0.1-0.8,0.2-0.8,0.7c0,0.4,0.5,0.5,0.8,0.5c0.4,0,1-0.2,1-0.8V43.3
			z M19.8,44.5c0,0.2,0,0.3,0.2,0.3c0.1,0,0.1,0,0.2,0v0.6c-0.1,0-0.4,0.1-0.6,0.1c-0.4,0-0.6-0.1-0.7-0.5c-0.4,0.4-1,0.5-1.4,0.5
			c-0.8,0-1.4-0.4-1.4-1.2c0-1,0.8-1.2,1.6-1.3c0.7-0.1,1.3,0,1.3-0.6c0-0.5-0.5-0.6-0.9-0.6c-0.5,0-0.9,0.2-0.9,0.7h-0.9
			c0.1-1.1,1-1.4,1.9-1.4c0.8,0,1.7,0.3,1.7,1.2V44.5z"/>
		<path class="st8" d="M20.7,41.2h0.9v0.6l0,0c0.3-0.5,0.8-0.7,1.3-0.7c0.9,0,1.5,0.5,1.5,1.4v2.9h-0.9v-2.6c0-0.7-0.3-0.9-0.8-0.9
			c-0.6,0-1,0.5-1,1.1v2.5h-0.9V41.2z"/>
		<path class="st8" d="M31.5,41.5c-0.2-0.7-0.6-1.1-1.4-1.1c-1.2,0-1.8,1.1-1.8,2.2c0,1.1,0.5,2.2,1.8,2.2c0.9,0,1.4-0.7,1.5-1.5h1
			c-0.1,1.4-1.1,2.3-2.5,2.3c-1.7,0-2.8-1.4-2.8-3c0-1.7,1-3,2.8-3c1.3,0,2.3,0.7,2.5,2H31.5z"/>
	</g>
	<rect x="33.2" y="39.6" class="st4" width="0.9" height="5.8"/>
	<g>
		<defs>
			<rect id="SVGID_7_" x="3.5" y="6.5" width="97.1" height="49.2"/>
		</defs>
		<clipPath id="SVGID_8_">
			<use xlink:href="#SVGID_7_"  style="overflow:visible;"/>
		</clipPath>
		<path class="st9" d="M38.2,43.3c0-0.7-0.4-1.5-1.2-1.5c-0.8,0-1.2,0.8-1.2,1.5c0,0.7,0.4,1.5,1.2,1.5C37.8,44.8,38.2,44,38.2,43.3
			 M34.9,43.3c0-1.3,0.8-2.2,2.1-2.2c1.3,0,2.1,0.9,2.1,2.2c0,1.3-0.8,2.2-2.1,2.2C35.6,45.5,34.9,44.6,34.9,43.3"/>
		<path class="st9" d="M39.4,41.2h0.7V40H41v1.3h0.8v0.7H41v2.2c0,0.4,0,0.6,0.4,0.6c0.1,0,0.3,0,0.4,0v0.7c-0.2,0-0.4,0-0.6,0
			c-1,0-1.1-0.4-1.2-1.1v-2.5h-0.7V41.2z"/>
		<path class="st9" d="M42.4,39.6h0.9v2.1h0c0.2-0.4,0.7-0.7,1.3-0.7c0.9,0,1.5,0.5,1.5,1.4v2.9h-0.9v-2.6c0-0.7-0.3-0.9-0.8-0.9
			c-0.6,0-1,0.5-1,1.1v2.5h-0.9V39.6z"/>
		<path class="st9" d="M49.8,42.9c0-0.6-0.4-1.1-1.1-1.1c-0.6,0-1.1,0.5-1.1,1.1H49.8z M47.7,43.5c0,0.7,0.4,1.2,1.1,1.2
			c0.5,0,0.9-0.2,1-0.7h0.9c-0.2,0.9-1,1.4-1.9,1.4c-1.3,0-2-0.9-2-2.2c0-1.2,0.8-2.2,2-2.2c1.3,0,2.1,1.2,2,2.4H47.7z"/>
		<path class="st9" d="M52.1,44c0,0.5,0.5,0.7,0.9,0.7c0.3,0,1-0.1,0.9-0.5c0-0.5-0.7-0.5-1.4-0.7c-0.7-0.1-1.3-0.4-1.3-1.2
			c0-0.9,1-1.2,1.7-1.2c0.9,0,1.6,0.4,1.7,1.3h-1c-0.1-0.4-0.4-0.6-0.8-0.6c-0.3,0-0.8,0.1-0.8,0.4c0,0.5,0.7,0.5,1.4,0.7
			c0.7,0.2,1.4,0.4,1.4,1.2c0,1-1,1.4-1.9,1.4c-1.1,0-1.8-0.5-1.9-1.5H52.1z"/>
		<path class="st9" d="M8.3,50c-0.2-0.7-0.6-1.1-1.4-1.1c-1.2,0-1.8,1.1-1.8,2.2c0,1.1,0.5,2.2,1.8,2.2c0.9,0,1.4-0.7,1.5-1.5h1
			c-0.1,1.4-1.1,2.3-2.5,2.3c-1.7,0-2.8-1.4-2.8-3c0-1.6,1-3,2.8-3c1.3,0,2.3,0.7,2.5,2H8.3z"/>
		<path class="st9" d="M12.6,51.9c-0.3,0.2-0.7,0.2-1.1,0.3c-0.4,0.1-0.8,0.2-0.8,0.7c0,0.4,0.5,0.5,0.8,0.5c0.4,0,1-0.2,1-0.8V51.9
			z M13.5,53c0,0.2,0,0.3,0.2,0.3c0.1,0,0.1,0,0.2,0V54c-0.1,0-0.4,0.1-0.6,0.1c-0.4,0-0.6-0.1-0.7-0.5c-0.4,0.4-1,0.5-1.4,0.5
			c-0.8,0-1.4-0.4-1.4-1.2c0-1,0.8-1.2,1.6-1.3c0.7-0.1,1.3,0,1.3-0.6c0-0.5-0.5-0.6-0.9-0.6c-0.5,0-0.9,0.2-0.9,0.7H9.9
			c0.1-1.1,1-1.4,1.9-1.4c0.8,0,1.7,0.3,1.7,1.2V53z"/>
		<path class="st9" d="M14.4,49.8h0.9v0.6h0c0.3-0.4,0.6-0.7,1.3-0.7c0.5,0,1,0.2,1.2,0.7c0.3-0.4,0.7-0.7,1.3-0.7
			c0.9,0,1.4,0.4,1.4,1.4V54h-0.9v-2.4c0-0.7,0-1.1-0.8-1.1c-0.6,0-0.9,0.4-0.9,1.1V54H17v-2.7c0-0.6-0.2-0.9-0.7-0.9
			c-0.5,0-0.9,0.4-0.9,1.1V54h-0.9V49.8z"/>
		<path class="st9" d="M23.5,50.4c-0.8,0-1.2,0.6-1.2,1.5c0,0.8,0.4,1.5,1.2,1.5c0.8,0,1.2-0.7,1.2-1.5
			C24.6,51.1,24.2,50.4,23.5,50.4 M21.4,49.8h0.9v0.6h0c0.3-0.5,0.8-0.7,1.3-0.7c1.3,0,2,1,2,2.2c0,1.1-0.6,2.2-1.8,2.2
			c-0.5,0-1.1-0.2-1.4-0.7h0v2.1h-0.9V49.8z"/>
		<path class="st9" d="M28.8,51.9c-0.3,0.2-0.7,0.2-1.1,0.3c-0.4,0.1-0.8,0.2-0.8,0.7c0,0.4,0.5,0.5,0.8,0.5c0.4,0,1-0.2,1-0.8V51.9
			z M29.7,53c0,0.2,0,0.3,0.2,0.3c0.1,0,0.1,0,0.2,0V54c-0.1,0-0.4,0.1-0.6,0.1c-0.4,0-0.6-0.1-0.7-0.5c-0.4,0.4-1,0.5-1.4,0.5
			c-0.8,0-1.4-0.4-1.4-1.2c0-1,0.8-1.2,1.6-1.3c0.7-0.1,1.3,0,1.3-0.6c0-0.5-0.5-0.6-0.9-0.6c-0.5,0-0.9,0.2-0.9,0.7h-0.9
			c0.1-1.1,1-1.4,1.9-1.4c0.8,0,1.7,0.3,1.7,1.2V53z"/>
	</g>
	<path class="st4" d="M30.7,54h0.9v-4.2h-0.9V54z M30.7,49.1h0.9v-0.9h-0.9V49.1z"/>
	<g>
		<defs>
			<rect id="SVGID_9_" x="3.5" y="6.5" width="97.1" height="49.2"/>
		</defs>
		<clipPath id="SVGID_10_">
			<use xlink:href="#SVGID_9_"  style="overflow:visible;"/>
		</clipPath>
		<path class="st10" d="M35.5,51.8c0-0.7-0.3-1.4-1.1-1.4c-0.8,0-1.1,0.8-1.1,1.5c0,0.7,0.3,1.4,1.1,1.4
			C35.2,53.2,35.5,52.5,35.5,51.8 M36.4,53.7c0,1.3-0.7,1.9-2.1,1.9c-0.8,0-1.8-0.3-1.9-1.3h0.9c0.1,0.5,0.5,0.6,1,0.6
			c0.7,0,1.1-0.4,1.1-1.1v-0.6h0c-0.3,0.5-0.7,0.7-1.3,0.7c-1.3,0-1.9-1-1.9-2.2c0-1.1,0.7-2.1,1.9-2.1c0.5,0,1,0.2,1.2,0.7h0v-0.6
			h0.9V53.7z"/>
		<path class="st10" d="M37.2,49.8h0.9v0.6l0,0c0.3-0.5,0.8-0.7,1.3-0.7c0.9,0,1.5,0.5,1.5,1.4V54H40v-2.6c0-0.7-0.3-0.9-0.8-0.9
			c-0.6,0-1,0.5-1,1.1V54h-0.9V49.8z"/>
		<path class="st10" d="M56.2,26.5c0-1.2-0.4-2.2-1.7-2.2c-1.1,0-1.6,1-1.6,2c0,1,0.4,2.2,1.6,2.2C55.7,28.4,56.2,27.5,56.2,26.5
			 M58.1,29.7c0,1.2-0.4,3.2-3.7,3.2c-1.4,0-3.1-0.7-3.2-2.3h2c0.2,0.7,0.8,1,1.5,1c1.1,0,1.6-0.8,1.6-1.8v-0.9h0
			c-0.4,0.8-1.3,1.1-2.2,1.1c-2.2,0-3.1-1.6-3.1-3.6c0-1.9,1.1-3.6,3.1-3.6c0.9,0,1.7,0.3,2.1,1.2h0v-1h1.9V29.7z"/>
		<path class="st11" d="M56.2,26.5c0-1.2-0.4-2.2-1.7-2.2c-1.1,0-1.6,1-1.6,2c0,1,0.4,2.2,1.6,2.2C55.7,28.4,56.2,27.5,56.2,26.5z
			 M58.1,29.7c0,1.2-0.4,3.2-3.7,3.2c-1.4,0-3.1-0.7-3.2-2.3h2c0.2,0.7,0.8,1,1.5,1c1.1,0,1.6-0.8,1.6-1.8v-0.9h0
			c-0.4,0.8-1.3,1.1-2.2,1.1c-2.2,0-3.1-1.6-3.1-3.6c0-1.9,1.1-3.6,3.1-3.6c0.9,0,1.7,0.3,2.1,1.2h0v-1h1.9V29.7z"/>
	</g>
</g>
</svg>
