<?xml version="1.0" encoding="utf-8"?>
<!-- Generator: Adobe Illustrator 19.2.1, SVG Export Plug-In . SVG Version: 6.00 Build 0)  -->
<svg version="1.1" id="Layer_1" xmlns="http://www.w3.org/2000/svg" xmlns:xlink="http://www.w3.org/1999/xlink" x="0px" y="0px"
	 viewBox="0 0 96.4 96.4" style="enable-background:new 0 0 96.4 96.4;" xml:space="preserve">
<style type="text/css">
	.st0{fill:#0E4C8B;}
</style>
<g>
	<g>
		<g>
			<path class="st0" d="M55.3,66.4c-5.7-1.8-9.8-7-10.1-13c-0.2-3.8,1.1-7.5,3.7-10.3c2.6-2.8,6.1-4.5,9.9-4.7
				c1.7-0.1,3.3,0.1,4.9,0.6c5.7,1.8,9.8,7,10.1,12.9c0.4,7.9-5.7,14.6-13.6,15C58.5,67.1,56.8,66.9,55.3,66.4z M62.2,43.9
				c-1-0.3-2.1-0.4-3.2-0.4c-2.5,0.1-4.7,1.2-6.4,3c-1.7,1.8-2.5,4.2-2.4,6.7c0.2,3.9,2.8,7.2,6.5,8.4c1,0.3,2.1,0.4,3.2,0.4
				c5.1-0.3,9-4.6,8.8-9.7C68.5,48.4,65.9,45,62.2,43.9z"/>
		</g>
		<g>
			<path class="st0" d="M81.5,76.5c-0.3-0.1-0.7-0.3-0.9-0.5l-9.1-8.2c-1-0.9-1.1-2.5-0.2-3.6c0.9-1,2.5-1.1,3.6-0.2l9.1,8.2
				c1,0.9,1.1,2.5,0.2,3.6C83.5,76.6,82.4,76.8,81.5,76.5z"/>
		</g>
	</g>
	<path class="st0" d="M56.9,70.4c-0.1,0-0.2,0-0.3,0v4.8c0,1.9-0.3,2.2-2.2,2.2H18.8c-1.6,0-2.2-0.8-2.2-2.2c0,0,0-54.4,0-54.6
		c0-1.5,0.7-1.9,1.9-1.9c0.8,0,27.2,0,27.2,0v12.1h10.9v3.9c0.1,0,0.2,0,0.3,0c1.4,0,4.1,0.2,5.4,0.5v-7.3l-14-14.3H16.9
		c-2.9,0-5.3,2.4-5.3,5.3v58.7c0,2.9,2.4,5.3,5.3,5.3H57c2.9,0,5.3-2.4,5.3-5.3v-7.7C61,70.2,58.4,70.4,56.9,70.4z"/>
</g>
</svg>
